<?xml version="1.0" encoding="UTF-8" standalone="no"?>
<!-- Created with Inkscape (http://www.inkscape.org/) -->

<svg
   xmlns:dc="http://purl.org/dc/elements/1.1/"
   xmlns:cc="http://creativecommons.org/ns#"
   xmlns:rdf="http://www.w3.org/1999/02/22-rdf-syntax-ns#"
   xmlns:svg="http://www.w3.org/2000/svg"
   xmlns="http://www.w3.org/2000/svg"
   xmlns:sodipodi="http://sodipodi.sourceforge.net/DTD/sodipodi-0.dtd"
   xmlns:inkscape="http://www.inkscape.org/namespaces/inkscape"
   width="210mm"
   height="297mm"
   viewBox="0 0 210 297"
   version="1.1"
   id="svg109"
   inkscape:version="0.92.2 (5c3e80d, 2017-08-06)"
   sodipodi:docname="lambdalife_combined.svg">
  <defs
     id="defs103" />
  <sodipodi:namedview
     id="base"
     pagecolor="#ffffff"
     bordercolor="#666666"
     borderopacity="1.0"
     inkscape:pageopacity="0.0"
     inkscape:pageshadow="2"
     inkscape:zoom="2.0024"
     inkscape:cx="400"
     inkscape:cy="280.3356"
     inkscape:document-units="mm"
     inkscape:current-layer="layer1"
     showgrid="false"
     showborder="false"
     inkscape:window-width="3840"
     inkscape:window-height="2019"
     inkscape:window-x="-14"
     inkscape:window-y="-14"
     inkscape:window-maximized="1" />
  <metadata
     id="metadata106">
    <rdf:RDF>
      <cc:Work
         rdf:about="">
        <dc:format>image/svg+xml</dc:format>
        <dc:type
           rdf:resource="http://purl.org/dc/dcmitype/StillImage" />
        <dc:title />
      </cc:Work>
    </rdf:RDF>
  </metadata>
  <g
     inkscape:label="Layer 1"
     inkscape:groupmode="layer"
     id="layer1">
    <path
       style="display:inline;fill:#008000;stroke:none;stroke-width:0.17329487px;stroke-linecap:butt;stroke-linejoin:miter;stroke-opacity:1"
       d="m 81.725324,49.985938 c 0,0 0.724925,2.600032 0.483303,4.185329 -0.241629,1.585297 -1.329089,2.282678 -2.718447,4.248446 -1.389346,1.965766 -5.074112,7.419183 -7.12794,9.765421 -2.05383,2.346237 -5.134669,7.229048 -7.309307,11.223993 -2.174644,3.994947 -2.718344,9.701913 -2.59753,14.077327 0.120808,4.375417 1.993464,11.414186 4.288922,14.267716 0.354191,0.44031 0.690975,0.79099 1.009545,1.07294 1.855364,-3.66179 7.629911,-14.990282 8.735091,-17.200108 1.268537,-2.536473 4.349146,-8.243489 5.527075,-10.589726 1.177934,-2.346239 1.658609,-4.021738 2.35076,-6.374574 0.708855,-2.409649 0.600404,-2.443965 1.192561,-5.402887 0.591371,-2.955005 0.492898,-4.829952 0.134124,-6.303482 -0.386256,-1.518367 -0.854665,-3.668672 -1.126493,-4.619849 -0.240862,-0.842802 -0.853091,-2.928508 -0.989728,-3.30554 -0.01732,-0.01874 -0.02807,-0.03426 -0.02807,-0.05826 0,-0.01445 0.01049,0.0098 0.02807,0.05826 0.07411,0.08027 0.3221,0.248313 0.909782,1.687795 0.724881,1.775531 1.84821,3.170591 2.573091,6.658242 0.724881,3.487651 -0.302129,6.911989 -0.9666,10.780111 -0.664477,3.868121 -2.476817,8.306851 -5.255528,13.189562 -2.77871,4.882713 -4.711571,8.433972 -7.00703,14.014216 -1.419998,3.45201 -2.445052,6.77531 -3.093388,8.82876 0.174033,0.0624 0.313834,0.1475 0.41657,0.29129 0.543663,0.76095 -0.06054,3.424 -0.181366,5.45317 -0.120814,2.02919 -0.120712,9.25833 -0.301937,10.90704 -0.181219,1.64871 -0.483252,5.3264 -1.691385,6.84828 -0.223507,0.28154 -0.517773,0.49794 -0.866178,0.66374 -0.982761,-0.62175 -2.032893,-1.07343 -3.11949,-1.375 -1.357632,-1.12569 -1.694281,-1.80018 -1.984405,-2.16011 -0.332238,-0.41217 -0.619025,-0.77684 -0.452906,-1.17317 0.05229,-0.12471 0.123781,-0.17692 0.22761,-0.25072 -0.878388,-1.13816 -1.685536,-2.16541 -2.237784,-2.82629 -2.057952,-2.46275 -4.69756,-6.07477 -6.784382,-8.25379 -2.086821,-2.17901 -5.411698,-6.21853 -8.829571,-8.45111 -3.417873,-2.23259 -5.751405,-4.37548 -9.194938,-6.35585 -3.443532,-1.98037 -6.903227,-3.803369 -9.218061,-4.636842 -2.314841,-0.833475 -3.601136,-1.32818 -3.601136,-1.32818 0,0 5.520957,0.969544 8.595353,2.398354 3.074396,1.428808 7.518468,3.425728 13.150869,8.074848 5.632406,4.64913 7.334928,5.82848 14.217893,13.71078 1.981017,2.26863 3.678935,4.34993 5.108849,6.17656 0.06718,-0.11298 0.137607,-0.23436 0.211423,-0.3662 1.162829,-2.07673 1.993521,-3.56707 1.28374,-7.40348 -0.709783,-3.83642 -0.513695,-3.23405 -1.676523,-5.94491 -1.162829,-2.71086 -3.548705,-6.30938 -7.052292,-9.6385 -3.503592,-3.32912 -6.327694,-4.803397 -8.89498,-6.261868 -2.567288,-1.458473 -8.018851,-3.70979 -10.91837,-4.248791 -1.268537,-0.235812 -2.730973,-0.34692 -4.294538,-0.348518 -2.010282,-0.0021 -4.187931,0.177404 -6.337087,0.507345 -3.820724,0.586559 -4.606197,1.617001 -7.007366,1.775531 -2.401166,0.15853 -16.4305743,0.871764 -16.4305743,0.919323 0,0.04756 1.797047,-0.06331 3.21661,-0.09502 1.419558,-0.03171 4.0926513,-0.38057 6.5693233,0.205989 2.476677,0.586559 6.372907,0.808601 11.099731,4.565749 4.726823,3.75715 7.852731,11.12873 14.406854,16.02729 6.55413,4.89857 14.286331,9.13131 15.826696,10.20931 1.540371,1.078 4.303928,2.33019 5.119419,2.52043 0.81549,0.19023 1.283783,0.0476 1.661326,0.17442 0.377544,0.12683 0.755081,0.5549 0.422848,1.39511 -0.155289,0.39272 -0.55134,0.56609 -0.933895,0.6471 -0.27193,0.0202 -0.543227,0.0497 -0.813649,0.0839 -0.01732,0.002 -0.03247,0.004 -0.04296,0.005 -2.399298,0.31056 -4.719873,1.15948 -6.646627,2.35708 -4.590911,2.85354 -8.69856,9.41661 -10.994019,18.80156 -2.295451,9.38496 -1.72178,14.64814 -1.72178,14.64814 0.02749,0.0247 3.647716,0 3.647716,0 0,0 0.06739,-2.14015 0.490238,-4.77174 0.422841,-2.6316 1.223142,-4.88256 2.521885,-7.24466 1.298742,-2.36209 3.443282,-4.53409 6.146475,-6.1828 2.703201,-1.6487 5.859307,-1.88655 9.332693,-1.17316 3.473387,0.71338 5.466811,2.88518 8.45694,6.92769 2.990135,4.0425 5.436695,12.04828 6.357895,15.37741 0.921205,3.32913 3.742855,16.59706 3.742855,16.59706 L 35.166582,290.85757 c 0,0 20.031592,-0.0224 20.042281,0 0.01068,0.0224 31.84863,-75.53707 31.84863,-75.53707 0,0 8.349901,41.37214 11.098406,51.61317 2.748501,10.241 5.874461,17.13695 8.653161,19.95877 2.77872,2.82183 6.44841,4.78754 10.88831,5.3741 4.43989,0.58657 8.03409,-0.31688 11.734,-2.80581 3.69991,-2.4889 6.23685,-7.62527 7.74702,-12.31775 1.51017,-4.69248 1.52536,-9.08374 1.81229,-12.31775 0.28693,-3.23401 0.10572,-5.92896 0.10572,-5.92896 l -3.79044,0.0635 c 0,0 0.015,1.45835 -0.70991,5.53258 -0.72488,4.07421 -2.79381,7.48264 -4.86274,9.385 -2.06893,1.90235 -5.3005,2.93272 -8.74368,2.64733 -3.44318,-0.28532 -5.87474,-1.10948 -9.43873,-5.18372 -3.564,-4.07421 -4.48507,-7.18144 -6.26706,-11.93732 -1.782,-4.75589 -3.74522,-13.06282 -5.07416,-19.30889 -1.328951,-6.24607 -10.420156,-48.54192 -12.051137,-56.11963 -1.630982,-7.57771 -5.044149,-23.74777 -8.275906,-32.4669 -2.257607,-6.09093 -4.339143,-9.93699 -7.02553,-12.96762 0.348924,-3.29283 1.481234,-7.08982 2.404606,-8.59225 1.208133,-1.96578 20.357105,-20.16512 20.357105,-20.16512 l -22.289979,16.86755 c 0,0 0.06035,-2.59988 -0.06047,-4.43882 -0.120809,-1.83894 0.241393,-6.65824 0.120578,-8.87766 -0.120814,-2.21942 0.181366,-3.23405 0.604207,-3.61452 0.422848,-0.38048 3.624259,-2.34595 6.584189,-5.8336 2.959929,-3.48765 8.03427,-12.619149 9.544443,-15.78974 1.510166,-3.170591 3.926484,-7.545811 3.86608,-10.399342 -0.06042,-2.853532 -0.66467,-5.136461 -1.51036,-8.116814 -0.845695,-2.980356 -2.476478,-6.277771 -3.563804,-8.877656 -1.087318,-2.599886 -2.839121,-4.058455 -4.228472,-5.8974 -1.389332,-1.838942 -2.959929,-4.81925 -2.959929,-4.81925 z"
       id="path69"
       inkscape:connector-curvature="0" />
  </g>
</svg>
